<svg width="60" height="60" viewBox="0 0 60 60" fill="none" xmlns="http://www.w3.org/2000/svg">
<path d="M6 22H6.02" stroke="#EEB411" stroke-width="8" stroke-linecap="square"/>
<path d="M6 30H6.02" stroke="#EEB411" stroke-width="8" stroke-linecap="square"/>
<path d="M6 38H6.02" stroke="#EEB411" stroke-width="8" stroke-linecap="square"/>
<path d="M14 6H14.02" stroke="#EEB411" stroke-width="8" stroke-linecap="square"/>
<path d="M14 14H14.02" stroke="#EEB411" stroke-width="8" stroke-linecap="square"/>
<path d="M14 38H14.02" stroke="#EEB411" stroke-opacity="0.3" stroke-width="8" stroke-linecap="square"/>
<path d="M22 14H22.02" stroke="#EEB411" stroke-width="8" stroke-linecap="square"/>
<path d="M22 30H22.02" stroke="#EEB411" stroke-width="8" stroke-linecap="square"/>
<path d="M30 14H30.02" stroke="#EEB411" stroke-width="8" stroke-linecap="square"/>
<path d="M46 6H46.02" stroke="#EEB411" stroke-width="8" stroke-linecap="square"/>
<path d="M38 14H38.02" stroke="#EEB411" stroke-width="8" stroke-linecap="square"/>
<path d="M38 30H38.02" stroke="#EEB411" stroke-width="8" stroke-linecap="square"/>
<path d="M46 14H46.02" stroke="#EEB411" stroke-width="8" stroke-linecap="square"/>
<path d="M54 38H54.02" stroke="#EEB411" stroke-width="8" stroke-linecap="square"/>
<path d="M46 38H46.02" stroke="#EEB411" stroke-opacity="0.3" stroke-width="8" stroke-linecap="square"/>
<path d="M54 22H54.02" stroke="#EEB411" stroke-width="8" stroke-linecap="square"/>
<path d="M54 30H54.02" stroke="#EEB411" stroke-width="8" stroke-linecap="square"/>
<path d="M14 54H14.02" stroke="#EEB411" stroke-width="8" stroke-linecap="square"/>
<path d="M22 54H22.02" stroke="#EEB411" stroke-width="8" stroke-linecap="square"/>
<path d="M30 54H30.02" stroke="#EEB411" stroke-width="8" stroke-linecap="square"/>
<path d="M38 54H38.02" stroke="#EEB411" stroke-width="8" stroke-linecap="square"/>
<path d="M46 54H46.02" stroke="#EEB411" stroke-width="8" stroke-linecap="square"/>
<path d="M14 46H14.02" stroke="#EEB411" stroke-opacity="0.3" stroke-width="8" stroke-linecap="square"/>
<path d="M6 46H6.02" stroke="#EEB411" stroke-width="8" stroke-linecap="square"/>
<path d="M22 46H22.02" stroke="#EEB411" stroke-width="8" stroke-linecap="square"/>
<path d="M30 46H30.02" stroke="#EEB411" stroke-width="8" stroke-linecap="square"/>
<path d="M38 46H38.02" stroke="#EEB411" stroke-width="8" stroke-linecap="square"/>
<path d="M46 46H46.02" stroke="#EEB411" stroke-opacity="0.3" stroke-width="8" stroke-linecap="square"/>
<path d="M54 46H54.02" stroke="#EEB411" stroke-width="8" stroke-linecap="square"/>
</svg>
