<svg width="28" height="29" viewBox="0 0 28 29" fill="none" xmlns="http://www.w3.org/2000/svg">
<path d="M14 26.01L14 26" stroke="white" stroke-width="4" stroke-linecap="square"/>
<path d="M18 22.01L18 22" stroke="white" stroke-width="4" stroke-linecap="square"/>
<path d="M14 22.01L14 22" stroke="white" stroke-width="4" stroke-linecap="square"/>
<path d="M22 18.01L22 18" stroke="white" stroke-width="4" stroke-linecap="square"/>
<path d="M18 18.01L18 18" stroke="white" stroke-opacity="0.25098" stroke-width="4" stroke-linecap="square"/>
<path d="M14 18.01L14 18" stroke="white" stroke-width="4" stroke-linecap="square"/>
<path d="M10 18.01L10 18" stroke="white" stroke-width="4" stroke-linecap="square"/>
<path d="M6 18.01L6 18" stroke="white" stroke-width="4" stroke-linecap="square"/>
<path d="M2 18.01L2 18" stroke="white" stroke-width="4" stroke-linecap="square"/>
<path d="M22 14.01L22 14" stroke="white" stroke-width="4" stroke-linecap="square"/>
<path d="M18 14.01L18 14" stroke="white" stroke-opacity="0.25098" stroke-width="4" stroke-linecap="square"/>
<path d="M2 14.01L2 14" stroke="white" stroke-width="4" stroke-linecap="square"/>
<path d="M22 10.01L22 10" stroke="white" stroke-width="4" stroke-linecap="square"/>
<path d="M18 10.01L18 10" stroke="white" stroke-opacity="0.25098" stroke-width="4" stroke-linecap="square"/>
<path d="M14 10.01L14 10" stroke="white" stroke-width="4" stroke-linecap="square"/>
<path d="M10 10.01L10 10" stroke="white" stroke-width="4" stroke-linecap="square"/>
<path d="M6 10.01L6 10" stroke="white" stroke-width="4" stroke-linecap="square"/>
<path d="M2 10.01L2 10" stroke="white" stroke-width="4" stroke-linecap="square"/>
<path d="M18 6.01001L18 6.00001" stroke="white" stroke-width="4" stroke-linecap="square"/>
<path d="M26 14.01L26 14" stroke="white" stroke-width="4" stroke-linecap="square"/>
<path d="M14 6.01001L14 6.00001" stroke="white" stroke-width="4" stroke-linecap="square"/>
<path d="M14 2.01001L14 2.00001" stroke="white" stroke-width="4" stroke-linecap="square"/>
</svg>
