<svg width="142" height="33" viewBox="0 0 142 33" fill="none" xmlns="http://www.w3.org/2000/svg">
<g clip-path="url(#clip0_287_3841)">
<path d="M9.80465 28.716C12.2602 28.716 13.8973 27.2833 14.3884 24.9855H19.1358C18.5355 29.7432 14.8795 32.9872 9.83199 32.9872C4.23865 32.9872 0.00976562 28.9592 0.00976562 23.4174C0.00976562 17.8757 4.23865 13.8477 9.83199 13.8477C14.8795 13.8477 18.5355 17.0918 19.1358 21.8496H14.3884C13.8973 19.5518 12.2602 18.1191 9.80465 18.1191C6.77621 18.1191 4.67532 20.3626 4.67532 23.4174C4.67532 26.4723 6.77599 28.716 9.80465 28.716ZM31.2602 29.4458H23.4024L22.1747 32.6087H17.2635L25.1484 14.1181H29.5687L37.4264 32.6087H32.5153L31.2602 29.4458ZM29.7322 25.5531L27.3313 19.4437L24.9302 25.5531H29.7322ZM49.1229 32.6087L45.576 27.2833H42.0838V32.6087H37.4727V14.2262H45.576C50.1871 14.2262 53.2702 16.7133 53.2702 20.6871C53.2702 23.0932 52.0969 25.0395 50.1324 26.1748L54.498 32.6087H49.1229ZM42.0838 23.1743H45.4942C47.2678 23.1743 48.6591 22.2011 48.6591 20.6871C48.6591 19.2003 47.2678 18.2542 45.4942 18.2542H42.0838V23.1743Z" fill="#FAFAF9"/>
<path d="M65.9705 32.6081L62.4236 27.2827H58.9312V32.6081H54.3203V14.2256H62.4236C67.0348 14.2256 70.1179 16.7128 70.1179 20.6865C70.1179 23.0926 68.9445 25.039 66.9801 26.1742L71.3456 32.6081H65.9705ZM58.9312 23.1737H62.3419C64.1152 23.1737 65.5068 22.2005 65.5068 20.6865C65.5068 19.1997 64.1152 18.2536 62.3419 18.2536H58.9312V23.1737Z" fill="#FAFAF9"/>
<path d="M80.0214 13.8477C85.6148 13.8477 89.8439 18.065 89.8439 23.4174C89.8439 28.7701 85.6148 32.9872 80.0214 32.9872C74.4283 32.9872 70.1992 28.7701 70.1992 23.4174C70.1992 18.065 74.4283 13.8477 80.0214 13.8477ZM80.0214 28.7431C83.0228 28.7431 85.1783 26.3101 85.1783 23.4174C85.1783 20.525 83.0228 18.092 80.0214 18.092C77.0203 18.092 74.8648 20.525 74.8648 23.4174C74.8648 26.3101 77.0203 28.7431 80.0214 28.7431Z" fill="#FAFAF9"/>
<path d="M104.818 18.3084H98.897V32.6089H94.3132V18.3084H88.3926V14.2266H104.818V18.3084Z" fill="#FAFAF9"/>
<path d="M137.865 4.13477H142.001V8.25644H137.865V4.13477Z" fill="#3D783D"/>
<path d="M108.914 28.8651H113.05V32.9868H108.914V28.8651ZM113.05 24.7432H117.185V28.8649H113.05V24.7432ZM113.05 20.6213H117.185V24.7432H113.05V20.6213ZM117.185 20.6213H121.321V24.743H117.185V20.6213ZM117.185 16.4996H121.321V20.6213H117.185V16.4996ZM121.321 16.4996H125.457V20.6213H121.321V16.4996ZM121.321 12.3779H125.457V16.4996H121.321V12.3779ZM125.457 12.3779H129.592V16.4996H125.457V12.3779Z" fill="#F98635"/>
<path d="M117.186 24.7436H121.321V28.8653H117.186V24.7436ZM121.321 20.6217H125.457V24.7434L121.321 24.7436V20.6217ZM125.457 16.5H129.592V20.6217H125.457V16.5Z" fill="#EA7928"/>
<path d="M121.322 4.13477H125.458V8.25644H121.322V4.13477Z" fill="#498448"/>
<path d="M125.457 4.13477H129.593V8.25644H125.457V4.13477Z" fill="#3D783D"/>
<path d="M125.457 0.0126953H129.593V4.13437H125.457V0.0126953ZM133.728 0.0126953H137.864V4.13437H133.728V0.0126953ZM129.593 8.25605H133.728V12.3777H129.593V8.25605ZM133.728 4.13437H137.864V8.25605H133.728V4.13437ZM133.728 12.3777L137.864 12.378V16.4996H133.728V12.3777ZM137.864 12.378H141.999V16.4996H137.864V12.378Z" fill="#498448"/>
<path d="M137.865 16.5H142.001V20.6217H137.865V16.5Z" fill="#3D783D"/>
</g>
<defs>
<clipPath id="clip0_287_3841">
<rect width="142" height="33" fill="white"/>
</clipPath>
</defs>
</svg>
