<svg width="19" height="16" viewBox="0 0 19 16" fill="none" xmlns="http://www.w3.org/2000/svg">
<g clip-path="url(#clip0_2047_2196)">
<path d="M12.3912 0H8.26074V0.8H12.3912V0Z" fill="#11EEB4"/>
<path d="M16.5213 0H14.8691V0.8H16.5213V0Z" fill="#11EEB4"/>
<path d="M8.26057 0.800049H6.6084V1.60005H8.26057V0.800049Z" fill="#11EEB4"/>
<path d="M14.8699 0.800049H12.3916V1.60005H14.8699V0.800049Z" fill="#11EEB4"/>
<path d="M17.3476 0.800049H16.5215V1.60005H17.3476V0.800049Z" fill="#11EEB4"/>
<path d="M6.60823 1.59998H4.95605V2.39998H6.60823V1.59998Z" fill="#11EEB4"/>
<path d="M16.5213 1.59998H14.8691V2.39998H16.5213V1.59998Z" fill="#11EEB4"/>
<path d="M18.1737 1.59998H17.3477V3.19998H18.1737V1.59998Z" fill="#11EEB4"/>
<path d="M4.95695 2.40002H4.13086V4.00002H4.95695V2.40002Z" fill="#11EEB4"/>
<path d="M17.3476 2.40002H16.5215V4.00002H17.3476V2.40002Z" fill="#11EEB4"/>
<path d="M16.5214 3.19995H15.6953V4.79995H16.5214V3.19995Z" fill="#11EEB4"/>
<path d="M4.13077 4H3.30469V5.6H4.13077V4Z" fill="#11EEB4"/>
<path d="M15.696 4H13.2178V4.8H15.696V4Z" fill="#11EEB4"/>
<path d="M18.1737 4H17.3477V6.4H18.1737V4Z" fill="#11EEB4"/>
<path d="M3.30452 5.59998H1.65234V6.39998H3.30452V5.59998Z" fill="#11EEB4"/>
<path d="M1.65226 6.40002H0.826172V7.20002H1.65226V6.40002Z" fill="#11EEB4"/>
<path d="M18.9999 6.40002H18.1738V9.60002H18.9999V6.40002Z" fill="#11EEB4"/>
<path d="M0.826087 7.19995H0V10.4H0.826087V7.19995Z" fill="#11EEB4"/>
<path d="M4.13069 7.19995H2.47852V7.99995H4.13069V7.19995Z" fill="#11EEB4"/>
<path d="M3.30452 8H1.65234V8.8H3.30452V8Z" fill="#11EEB4"/>
<path d="M4.95695 8H4.13086V8.8H4.95695V8Z" fill="#11EEB4"/>
<path d="M2.47843 8.80005H1.65234V9.60005H2.47843V8.80005Z" fill="#11EEB4"/>
<path d="M4.13077 8.80005H3.30469V10.4H4.13077V8.80005Z" fill="#11EEB4"/>
<path d="M9.91292 8.80005H8.26074V9.60005H9.91292V8.80005Z" fill="#11EEB4"/>
<path d="M17.3475 8.80005H15.6953V9.60005H17.3475V8.80005Z" fill="#11EEB4"/>
<path d="M4.95695 9.59998H4.13086V10.4H4.95695V9.59998Z" fill="#11EEB4"/>
<path d="M11.5652 9.59998H9.08691V10.4H11.5652V9.59998Z" fill="#11EEB4"/>
<path d="M16.5222 9.59998H14.0439V10.4H16.5222V9.59998Z" fill="#11EEB4"/>
<path d="M18.1737 9.59998H17.3477V12H18.1737V9.59998Z" fill="#11EEB4"/>
<path d="M1.65226 10.4H0.826172V11.2H1.65226V10.4Z" fill="#11EEB4"/>
<path d="M10.7391 10.4H9.08691V11.2H10.7391V10.4Z" fill="#11EEB4"/>
<path d="M16.5213 10.4H14.8691V11.2H16.5213V10.4Z" fill="#11EEB4"/>
<path d="M4.95669 11.2H1.65234V12H4.95669V11.2Z" fill="#11EEB4"/>
<path d="M4.95695 12H4.13086V12.8H4.95695V12Z" fill="#11EEB4"/>
<path d="M17.3476 12H16.5215V13.6H17.3476V12Z" fill="#11EEB4"/>
<path d="M5.78214 12.8H4.95605V13.6H5.78214V12.8Z" fill="#11EEB4"/>
<path d="M6.60831 13.6H5.78223V14.4H6.60831V13.6Z" fill="#11EEB4"/>
<path d="M16.5214 13.6H15.6953V14.4H16.5214V13.6Z" fill="#11EEB4"/>
<path d="M8.26057 14.4H6.6084V15.2H8.26057V14.4Z" fill="#11EEB4"/>
<path d="M15.6961 14.4H14.0439V15.2H15.6961V14.4Z" fill="#11EEB4"/>
<path d="M14.0434 15.2H8.26074V16H14.0434V15.2Z" fill="#11EEB4"/>
</g>
<defs>
<clipPath id="clip0_2047_2196">
<rect width="19" height="16" fill="white"/>
</clipPath>
</defs>
</svg>
