<svg width="60" height="60" viewBox="0 0 60 60" fill="none" xmlns="http://www.w3.org/2000/svg">
<path d="M6 38H6.02" stroke="#B411EE" stroke-width="8" stroke-linecap="square"/>
<path d="M6 46H6.02" stroke="#B411EE" stroke-width="8" stroke-linecap="square"/>
<path d="M14 14H14.02" stroke="#B411EE" stroke-width="8" stroke-linecap="square"/>
<path d="M14 54H14.02" stroke="#B411EE" stroke-width="8" stroke-linecap="square"/>
<path d="M22 14H22.02" stroke="#B411EE" stroke-width="8" stroke-linecap="square"/>
<path d="M22 22H22.02" stroke="#B411EE" stroke-width="8" stroke-linecap="square"/>
<path d="M29.9805 22H30.0005" stroke="#B411EE" stroke-width="8" stroke-linecap="square"/>
<path d="M14 38H14.02" stroke="#B411EE" stroke-width="8" stroke-linecap="square"/>
<path d="M22 54H22.02" stroke="#B411EE" stroke-width="8" stroke-linecap="square"/>
<path d="M30 14H30.02" stroke="#BC8AFF" stroke-opacity="0.33" stroke-width="8" stroke-linecap="square"/>
<path d="M37.9805 14H38.0005" stroke="#B411EE" stroke-width="8" stroke-linecap="square"/>
<path d="M30 30H30.02" stroke="#B411EE" stroke-width="8" stroke-linecap="square"/>
<path d="M22 46H22.02" stroke="#B411EE" stroke-width="8" stroke-linecap="square"/>
<path d="M30 38H30.02" stroke="#B411EE" stroke-width="8" stroke-linecap="square"/>
<path d="M38 22H38.02" stroke="#B411EE" stroke-width="8" stroke-linecap="square"/>
<path d="M38 46H38.02" stroke="#B411EE" stroke-width="8" stroke-linecap="square"/>
<path d="M38 54H38.02" stroke="#B411EE" stroke-width="8" stroke-linecap="square"/>
<path d="M46 14H46.02" stroke="#B411EE" stroke-width="8" stroke-linecap="square"/>
<path d="M22 6H22.02" stroke="#B411EE" stroke-width="8" stroke-linecap="square"/>
<path d="M38 6H38.02" stroke="#B411EE" stroke-width="8" stroke-linecap="square"/>
<path d="M46 38H46.02" stroke="#B411EE" stroke-width="8" stroke-linecap="square"/>
<path d="M46 54H46.02" stroke="#B411EE" stroke-width="8" stroke-linecap="square"/>
<path d="M54 38H54.02" stroke="#B411EE" stroke-width="8" stroke-linecap="square"/>
<path d="M54 46H54.02" stroke="#B411EE" stroke-width="8" stroke-linecap="square"/>
</svg>
