<svg width="40" height="40" viewBox="0 0 40 40" fill="none" xmlns="http://www.w3.org/2000/svg">
<path d="M9.33984 3.99341V4.00674" stroke="white" stroke-width="5.33333" stroke-linecap="square"/>
<path d="M14.6729 3.99341V4.00674" stroke="white" stroke-width="5.33333" stroke-linecap="square"/>
<path d="M20.0068 3.99341V4.00674" stroke="white" stroke-width="5.33333" stroke-linecap="square"/>
<path d="M25.3398 3.99341V4.00674" stroke="white" stroke-width="5.33333" stroke-linecap="square"/>
<path d="M30.6729 3.99341V4.00674" stroke="white" stroke-width="5.33333" stroke-linecap="square"/>
<path d="M9.33984 9.3269V9.34024" stroke="white" stroke-opacity="0.25098" stroke-width="5.33333" stroke-linecap="square"/>
<path d="M14.6729 9.3269V9.34024" stroke="white" stroke-opacity="0.25098" stroke-width="5.33333" stroke-linecap="square"/>
<path d="M30.6729 9.3269V9.34024" stroke="white" stroke-opacity="0.25098" stroke-width="5.33333" stroke-linecap="square"/>
<path d="M30.6729 14.6667V14.6801" stroke="white" stroke-opacity="0.25098" stroke-width="5.33333" stroke-linecap="square"/>
<path d="M36.0068 9.3269V9.34024" stroke="white" stroke-width="5.33333" stroke-linecap="square"/>
<path d="M9.33984 14.6602V14.6735" stroke="white" stroke-opacity="0.25098" stroke-width="5.33333" stroke-linecap="square"/>
<path d="M25.3398 14.6602V14.6735" stroke="white" stroke-opacity="0.25098" stroke-width="5.33333" stroke-linecap="square"/>
<path d="M36.0068 14.6602V14.6735" stroke="white" stroke-width="5.33333" stroke-linecap="square"/>
<path d="M25.3398 19.9934V20.0067" stroke="white" stroke-opacity="0.25098" stroke-width="5.33333" stroke-linecap="square"/>
<path d="M20.0068 19.9934V20.0067" stroke="white" stroke-opacity="0.25098" stroke-width="5.33333" stroke-linecap="square"/>
<path d="M30.6729 19.9934V20.0067" stroke="white" stroke-opacity="0.25098" stroke-width="5.33333" stroke-linecap="square"/>
<path d="M36.0068 19.9934V20.0067" stroke="white" stroke-width="5.33333" stroke-linecap="square"/>
<path d="M9.33984 25.3269V25.3402" stroke="white" stroke-width="5.33333" stroke-linecap="square"/>
<path d="M14.6729 25.3269V25.3402" stroke="white" stroke-opacity="0.25098" stroke-width="5.33333" stroke-linecap="square"/>
<path d="M20.0068 25.3269V25.3402" stroke="white" stroke-opacity="0.25098" stroke-width="5.33333" stroke-linecap="square"/>
<path d="M25.3398 25.3269V25.3402" stroke="white" stroke-opacity="0.25098" stroke-width="5.33333" stroke-linecap="square"/>
<path d="M30.6729 25.3269V25.3402" stroke="white" stroke-width="5.33333" stroke-linecap="square"/>
<path d="M14.6729 30.6602V30.6735" stroke="white" stroke-width="5.33333" stroke-linecap="square"/>
<path d="M4.00684 9.3269V9.34024" stroke="white" stroke-width="5.33333" stroke-linecap="square"/>
<path d="M4.00684 14.6602V14.6735" stroke="white" stroke-width="5.33333" stroke-linecap="square"/>
<path d="M4.00684 19.9934V20.0067" stroke="white" stroke-width="5.33333" stroke-linecap="square"/>
<path d="M20.0068 30.6602V30.6735" stroke="white" stroke-opacity="0.25098" stroke-width="5.33333" stroke-linecap="square"/>
<path d="M25.3398 30.6602V30.6735" stroke="white" stroke-width="5.33333" stroke-linecap="square"/>
<path d="M20.0068 35.9934V36.0067" stroke="white" stroke-width="5.33333" stroke-linecap="square"/>
</svg>
