<svg width="217" height="34" viewBox="0 0 217 34" fill="none" xmlns="http://www.w3.org/2000/svg">
<g clip-path="url(#clip0_287_3800)">
<path d="M101.882 29.9728C101.283 29.9728 100.427 29.8314 99.7591 29.1606C99.12 28.5169 98.795 27.5359 98.795 26.2457V25.6921C98.795 25.6921 96.9084 29.9728 92.7298 29.9728C90.1459 29.9728 88.3415 28.1155 88.3415 25.4553V16.0566C88.3415 14.44 87.9246 13.0194 87.2148 12.1771C88.9042 12.0683 90.7017 11.5621 92.227 10.766V24.7122C92.227 25.6063 92.5172 26.3642 93.0701 26.9044C93.5703 27.3942 94.2467 27.6651 94.972 27.6651C96.0651 27.6651 97.0667 27.0908 97.7182 26.0907C98.4019 25.0471 98.7936 23.5039 98.7936 21.8574V16.0593C98.7936 14.3978 98.4019 13.0058 97.7101 12.1757C99.4006 12.0669 101.2 11.5607 102.725 10.7646V25.3273C102.725 27.5835 103.785 28.1631 104.535 28.2897C104.164 29.0938 103.408 29.9742 101.882 29.9742V29.9728Z" fill="white"/>
<path d="M114.401 29.971C113.575 29.971 112.317 29.6214 111.34 29.1219C110.796 28.8483 110.025 28.6075 109.154 28.6075C107.745 28.6075 106.73 29.2607 105.789 29.7696V9.26182C105.79 7.59627 105.388 6.20424 104.678 5.37827C106.382 5.27076 108.14 4.77411 109.68 3.96582V14.3483C109.68 14.3483 111.738 10.5491 115.751 10.5491C117.271 10.5491 118.546 11.0294 119.649 12.0173C121.334 13.5577 122.34 16.4098 122.34 19.6443C122.384 22.5114 121.517 25.3404 120.02 27.2156C118.607 29.0171 116.665 29.9696 114.403 29.9696L114.401 29.971ZM113.675 12.4201C113.635 12.4201 113.595 12.4201 113.553 12.4215C111.597 12.4705 109.677 14.8422 109.677 17.131V24.2763C109.677 26.8017 111.677 29.4933 114.81 29.4933C114.984 29.4933 115.162 29.4797 115.336 29.4526C116.734 29.2418 117.739 28.2264 118.322 26.4345C118.815 24.845 118.956 22.491 118.707 19.9763C118.479 18.2468 117.979 15.8601 116.887 14.2843C116.072 13.0638 114.96 12.4174 113.675 12.4174V12.4201Z" fill="white"/>
<path d="M206.346 29.9791C204.613 29.9791 202.902 29.5245 201.398 28.666C199.1 27.3869 197.457 25.3063 196.771 22.8066C196.082 20.3014 196.439 17.6874 197.772 15.4477C199.542 12.4472 202.826 10.583 206.343 10.583C208.076 10.583 209.794 11.0375 211.312 11.8975C216.027 14.5496 217.653 20.4797 214.937 25.1171C213.168 28.1176 209.877 29.9803 206.348 29.9803L206.346 29.9791ZM203.423 11.7056C202.74 11.7056 202.116 11.8621 201.569 12.1724C198.879 13.695 198.834 18.5774 201.466 23.0556C203.505 26.524 206.648 28.8564 209.286 28.8564C209.969 28.8564 210.593 28.7 211.14 28.3898C213.827 26.8642 213.873 21.9833 211.243 17.5065C209.202 14.0366 206.06 11.7056 203.423 11.7056Z" fill="white"/>
<path d="M45.2012 29.9688C45.9195 29.1033 46.3251 27.718 46.3263 26.1068V7.63477C46.3263 6.02095 45.9207 4.63569 45.2026 3.77026C48.5324 3.77026 52.5111 3.77026 55.7005 3.77434C58.9345 3.77434 61.5809 5.04937 63.3549 7.4606C65.0385 9.74936 65.9276 13.0043 65.9276 16.8715C65.9276 20.7387 65.0371 23.9937 63.3535 26.2825C61.5794 28.6936 58.9331 29.9674 55.7005 29.9674H45.2012V29.9688ZM50.487 29.6299H53.5931C56.252 29.6299 58.2997 28.5523 59.6792 26.4267C61.067 24.2875 61.7712 21.0721 61.7712 16.8702C61.7712 12.6668 61.0682 9.45138 59.6806 7.31365C58.3011 5.18816 56.2534 4.10909 53.5931 4.10909H50.487L50.4856 29.6311L50.487 29.6299Z" fill="white"/>
<path d="M76.7693 29.9713C75.0357 29.9713 73.3255 29.5169 71.8211 28.6582C69.5236 27.3777 67.88 25.2971 67.1938 22.7974C66.5063 20.2923 66.8619 17.6796 68.1954 15.4399C69.9651 12.4394 73.2492 10.5752 76.7667 10.5752C78.4988 10.5752 80.2159 11.0297 81.7357 11.8897C86.4504 14.5418 88.0758 20.4719 85.36 25.1093C83.5917 28.1097 80.3007 29.9727 76.7707 29.9727L76.7693 29.9713ZM73.8466 11.6978C73.1632 11.6978 72.5394 11.8543 71.9921 12.1645C69.304 13.6872 69.2568 18.5696 71.8893 23.0478C73.9273 26.5164 77.0708 28.8486 79.709 28.8486C80.3924 28.8486 81.0161 28.6922 81.5635 28.382C84.2501 26.8564 84.2959 21.9755 81.6662 17.4987C79.6254 14.0288 76.4831 11.6978 73.8466 11.6978Z" fill="white"/>
<path d="M127.203 29.971C126.332 29.971 125.6 29.6908 125.086 29.16C124.47 28.5231 124.158 27.542 124.158 26.2413V9.40475L124.16 9.2714C124.16 7.65211 123.742 6.23014 123.031 5.38647C124.741 5.28034 126.504 4.78502 128.049 3.97266V25.3201C128.047 26.2617 128.245 27.002 128.634 27.5204C128.946 27.9367 129.382 28.1993 129.902 28.2851C129.528 29.0894 128.763 29.971 127.2 29.971H127.203Z" fill="white"/>
<path d="M184.375 29.9734C185.027 29.168 185.414 27.8861 185.456 26.3837L185.459 26.2491V26.1131L185.461 16.0408C185.461 14.3807 185.07 12.9887 184.376 12.1573C186.068 12.0484 187.87 11.5409 189.397 10.7435V15.1237L189.915 14.2501C191.321 11.8797 193.109 10.6006 194.699 10.6006C195.433 10.6006 196.1 10.8441 196.573 11.2864C197.009 11.6933 197.259 12.2484 197.259 12.8091C197.259 14.2433 196.045 15.3564 195.001 15.3564C194.416 15.3564 194.025 14.9522 193.514 14.4284C192.971 13.8732 192.361 13.3479 191.714 13.3479C191.018 13.3479 190.212 14.7658 189.476 15.8476L189.398 15.9606V26.1117C189.398 27.7351 189.789 29.119 190.48 29.9734H184.375Z" fill="white"/>
<path d="M166.687 3.63672H147.895L147.14 8.35714C149.221 4.73074 151.511 4.24225 155.551 4.24361H161.569L146.18 30.1004H164.971L165.72 25.5188C163.647 29.0065 161.347 29.4989 157.308 29.4978H151.292L166.687 3.63672Z" fill="white"/>
<path d="M139.817 29.9775C137.16 29.9775 134.668 28.9652 132.798 27.1269C130.932 25.2939 129.904 22.8568 129.904 20.2659C129.904 14.9114 134.351 10.5557 139.817 10.5557C141.501 10.5557 143.314 11.1244 144.668 12.0715C145.73 12.8145 147.004 14.1222 147.037 16.1361V16.2191C147.037 17.6479 146.365 18.4725 144.861 18.897C144.679 18.9487 144.48 18.9964 144.268 19.0385C143.761 19.1392 143.215 19.2073 142.689 19.2739L142.651 19.278C142.291 19.3229 141.919 19.3678 141.568 19.425C140.772 19.5665 139.977 19.7175 139.209 19.8659L139.094 19.8876C138.467 20.0074 137.877 20.1203 137.343 20.2156C137.138 20.2578 136.956 20.3027 136.783 20.3557C135.975 20.568 135.239 20.8946 134.661 21.2987C134.388 21.4906 134.161 21.6893 133.982 21.8907L133.922 21.9573L133.959 22.0376C134.024 22.1764 134.095 22.3152 134.168 22.4526C134.243 22.5942 134.318 22.7343 134.397 22.8718C134.846 23.665 135.361 24.3984 135.93 25.0503L135.961 25.0843L135.996 25.0925C136.129 25.2571 136.271 25.4217 136.419 25.5809C136.486 25.6532 136.554 25.724 136.624 25.7934C136.857 26.0274 137.102 26.2492 137.35 26.4518C138.908 27.7147 140.666 28.3814 142.439 28.3814C143.646 28.3814 144.848 28.074 146.01 27.4657C146.023 27.4589 146.037 27.4561 146.055 27.4561C146.087 27.4561 146.12 27.4711 146.142 27.4969C146.159 27.5173 146.167 27.5459 146.165 27.5771C146.162 27.6031 146.147 27.6289 146.123 27.6493C144.343 29.0836 141.926 29.9761 139.817 29.9761V29.9775ZM135.667 12.3355C135.398 12.4158 135.14 12.5206 134.9 12.6458C134.147 13.0594 133.569 13.6867 133.176 14.5086C132.783 15.3319 132.603 16.3007 132.644 17.3866C132.644 17.4084 132.644 17.4369 132.646 17.4655C132.658 17.7077 132.68 17.9595 132.713 18.2085C132.828 19.0276 132.999 19.6332 133.23 20.3489C133.33 20.666 133.445 20.9817 133.579 21.311L133.673 21.545C133.673 21.545 134.558 20.4551 136.488 19.708C136.507 19.6999 137.054 19.5039 137.054 19.5039C137.563 19.3365 139.697 18.9038 139.697 18.9038C141.414 18.5745 142.485 17.8043 142.712 16.7375C142.774 16.4545 142.772 16.1565 142.71 15.8544C142.519 14.9073 141.732 13.9262 140.549 13.1629C139.517 12.5138 138.309 12.1505 137.146 12.1396H137.09C136.596 12.1396 136.124 12.2035 135.686 12.3301L135.674 12.3328L135.665 12.3369L135.667 12.3355Z" fill="white"/>
<path d="M175.903 29.9775C173.246 29.9775 170.754 28.9652 168.884 27.1269C167.018 25.2939 165.99 22.8568 165.99 20.2659C165.99 14.9114 170.437 10.5557 175.903 10.5557C177.587 10.5557 179.4 11.1244 180.754 12.0715C181.816 12.8145 183.089 14.1222 183.123 16.1361V16.2191C183.123 17.6479 182.45 18.4725 180.947 18.897C180.765 18.9487 180.565 18.9964 180.354 19.0385C179.847 19.1392 179.301 19.2073 178.775 19.2739L178.737 19.278C178.377 19.3229 178.005 19.3678 177.654 19.425C176.858 19.5665 176.063 19.7175 175.295 19.8659L175.18 19.8876C174.553 20.0074 173.963 20.1203 173.429 20.2156C173.223 20.2578 173.042 20.3027 172.869 20.3557C172.061 20.568 171.324 20.8946 170.747 21.2987C170.474 21.4906 170.246 21.6893 170.067 21.8907L170.008 21.9573L170.045 22.0376C170.11 22.1764 170.181 22.3152 170.253 22.4526C170.329 22.5942 170.403 22.7343 170.483 22.8718C170.931 23.665 171.447 24.3984 172.016 25.0503L172.047 25.0843L172.082 25.0925C172.215 25.2571 172.357 25.4217 172.505 25.5809C172.572 25.6532 172.64 25.724 172.71 25.7934C172.943 26.0274 173.187 26.2492 173.436 26.4518C174.993 27.7147 176.752 28.3814 178.525 28.3814C179.732 28.3814 180.933 28.074 182.096 27.4657C182.109 27.4589 182.123 27.4561 182.141 27.4561C182.173 27.4561 182.206 27.4711 182.228 27.4969C182.245 27.5173 182.253 27.5459 182.25 27.5771C182.248 27.6031 182.232 27.6289 182.209 27.6493C180.429 29.0836 178.012 29.9761 175.903 29.9761V29.9775ZM171.752 12.0076C171.484 12.0906 171.226 12.1994 170.986 12.3287C170.233 12.7573 169.655 13.4064 169.262 14.2582C168.868 15.1114 168.689 16.1143 168.73 17.2383C168.73 17.26 168.73 17.2913 168.732 17.3199C168.743 17.5703 168.766 17.8315 168.799 18.0887C168.914 18.9378 169.085 19.5638 169.316 20.3054C169.416 20.6347 169.531 20.9599 169.665 21.3028L169.759 21.545C169.759 21.545 170.644 20.417 172.573 19.6427C172.593 19.6345 173.14 19.4318 173.14 19.4318C173.649 19.2576 175.782 18.8099 175.782 18.8099C177.499 18.4684 178.57 17.671 178.798 16.5661C178.859 16.2735 178.858 15.9646 178.795 15.6503C178.605 14.6692 177.818 13.6527 176.635 12.8635C175.603 12.1913 174.395 11.8157 173.232 11.8035H173.176C172.682 11.8035 172.209 11.8701 171.772 12.0008L171.759 12.0035L171.751 12.0076H171.752Z" fill="white"/>
<path d="M23.7347 7.50408V3.75195H4.58008V30.0137H10.329V28.1392H14.1574V26.2615H17.989V24.387H23.7347V22.5125H25.6522V20.6349H23.7347V22.5094V24.384H17.989V22.5094V15.0052H27.5664V20.6318V9.37855H23.7347V7.50093V7.50408ZM23.738 20.6381H25.6522V22.5125H23.738V20.6381ZM16.0748 26.2615H14.1574V28.1392H6.49746V16.8828H8.41166V18.7604H10.329V20.6349H12.2432V22.5125H14.1574V24.387H16.0748V26.2615ZM17.989 13.1307H16.0748V15.0083H10.329V13.1307H16.0748H8.41166V7.50408H10.329V5.6296H16.0748V7.50408H17.989V13.1307Z" fill="#D7D7D7"/>
<path d="M14.1565 7.50488H10.3281V11.257H14.1565V7.50488Z" fill="#29F91E"/>
<path d="M16.0701 7.50436H16.0733V5.62988H10.3275V7.50436H14.1559V11.2565H10.3275H10.3243V7.50436H10.3275H8.41016V13.131H16.0733H16.0701V7.50436Z" fill="#087903"/>
<path d="M23.7339 16.8831H19.9023V20.6352H23.7339V16.8831Z" fill="#7C0404"/>
<path d="M17.9883 22.513H18.7069H23.734V20.6354H19.9025V16.8833H23.734V20.6354H25.6513V15.0088H17.9883V22.513Z" fill="#E80000"/>
<path d="M12.2406 24.3874V22.5129H10.3296H10.3264V20.6352H8.40899V18.7607H6.49805V26.2619H14.158V24.3874H12.2406Z" fill="#0919D8"/>
<path d="M8.41203 18.7602V16.8828H6.49805V18.7602H8.4088H8.41203Z" fill="#16B5F4"/>
<path d="M14.1562 22.5127H12.2422V24.387H14.1562V22.5127Z" fill="#16B5F4"/>
<path d="M14.1582 24.3867V26.2609H16.0754V24.3867H14.1582Z" fill="#16B5F4"/>
<path d="M12.2389 22.5122H12.2421V20.6348H10.3281V22.5122H12.2389Z" fill="#16B5F4"/>
<path d="M10.3293 18.7605H8.41211V20.6348H10.3293V18.7605Z" fill="#16B5F4"/>
<path d="M29.4803 3.75195H27.5664V5.62941H29.4803V3.75195Z" fill="#9E9E9E"/>
<path d="M31.3958 5.62988H29.4785V7.50415H31.3958V5.62988Z" fill="#9E9E9E"/>
<path d="M23.7344 7.50425H25.6518V3.75213H27.5659V1.87764H25.6518V0H23.7344V3.75213V7.50425Z" fill="#9E9E9E"/>
<path d="M14.158 26.2617H6.49805V28.1395H14.158V26.2617Z" fill="white"/>
<path d="M31.3976 7.50488H23.7344V9.37936H27.566V9.3825H29.4801V15.0091H31.3976V7.50488Z" fill="white"/>
<path d="M29.4797 31.8914H17.9883V33.7691H31.3972V33.6523V31.8914V22.5127H29.4797V31.8914Z" fill="white"/>
<path d="M2.66545 1.87764H23.7343V0H0.748047V0.00315396V33.7659V33.7692H6.49381V31.8914H2.66545V1.87764Z" fill="white"/>
<path d="M25.6523 15.0088V20.6386V20.6354L27.5667 20.6386V15.0088H25.6523Z" fill="white"/>
<path d="M17.9883 22.5127V24.3872H23.734V22.5127H18.7069H17.9883Z" fill="white"/>
<path d="M25.6503 20.6387H23.7363V22.513H25.6503V20.6387Z" fill="white"/>
<path d="M10.3262 15.0085H16.0752V13.1309H10.3262V15.0085Z" fill="white"/>
<path d="M17.9884 7.50488H16.0742V13.1315H17.9884V7.50488Z" fill="white"/>
<path d="M25.6398 24.4697V28.1912H19.9375V30.0504H27.5384V24.4697H25.6398Z" fill="white"/>
</g>
<defs>
<clipPath id="clip0_287_3800">
<rect width="217" height="34" fill="white"/>
</clipPath>
</defs>
</svg>
