<svg width="30" height="30" viewBox="0 0 30 30" fill="none" xmlns="http://www.w3.org/2000/svg">
<path d="M27 19L26.99 19" stroke="white" stroke-width="4" stroke-linecap="square"/>
<path d="M27 23L26.99 23" stroke="white" stroke-width="4" stroke-linecap="square"/>
<path d="M23 15L22.99 15" stroke="white" stroke-width="4" stroke-linecap="square"/>
<path d="M23 23L22.99 23" stroke="white" stroke-width="4" stroke-linecap="square"/>
<path d="M19 11L18.99 11" stroke="white" stroke-width="4" stroke-linecap="square"/>
<path d="M15.01 11L15 11" stroke="white" stroke-opacity="0.25098" stroke-width="4" stroke-linecap="square"/>
<path d="M19 15L18.99 15" stroke="white" stroke-opacity="0.25098" stroke-width="4" stroke-linecap="square"/>
<path d="M15 7L14.99 7" stroke="white" stroke-width="4" stroke-linecap="square"/>
<path d="M15 23L14.99 23" stroke="white" stroke-width="4" stroke-linecap="square"/>
<path d="M19 23L18.99 23" stroke="white" stroke-width="4" stroke-linecap="square"/>
<path d="M11 11L10.99 11" stroke="white" stroke-width="4" stroke-linecap="square"/>
<path d="M11 23L10.99 23" stroke="white" stroke-width="4" stroke-linecap="square"/>
<path d="M7 15L6.99 15" stroke="white" stroke-width="4" stroke-linecap="square"/>
<path d="M7 23L6.99 23" stroke="white" stroke-width="4" stroke-linecap="square"/>
<path d="M3 19L2.99 19" stroke="white" stroke-width="4" stroke-linecap="square"/>
<path d="M3 23L2.99 23" stroke="white" stroke-width="4" stroke-linecap="square"/>
</svg>
