<svg width="20" height="20" viewBox="0 0 20 20" fill="none" xmlns="http://www.w3.org/2000/svg">
<g clip-path="url(#clip0_99_969)">
<path d="M4.6665 4.66663H4.67317" stroke="white" stroke-width="2.66667" stroke-linecap="square"/>
<path d="M4.6665 7.33337H4.67317" stroke="white" stroke-width="2.66667" stroke-linecap="square"/>
<path d="M4.6665 10H4.67317" stroke="white" stroke-width="2.66667" stroke-linecap="square"/>
<path d="M7.3335 2H7.34016" stroke="white" stroke-width="2.66667" stroke-linecap="square"/>
<path d="M7.3335 4.66663H7.34016" stroke="white" stroke-opacity="0.25098" stroke-width="2.66667" stroke-linecap="square"/>
<path d="M7.3335 7.33337H7.34016" stroke="white" stroke-opacity="0.25098" stroke-width="2.66667" stroke-linecap="square"/>
<path d="M7.3335 12.6666H7.34016" stroke="white" stroke-width="2.66667" stroke-linecap="square"/>
<path d="M10 2H10.0067" stroke="white" stroke-width="2.66667" stroke-linecap="square"/>
<path d="M10 4.66663H10.0067" stroke="white" stroke-opacity="0.25098" stroke-width="2.66667" stroke-linecap="square"/>
<path d="M12.6665 2H12.6732" stroke="white" stroke-width="2.66667" stroke-linecap="square"/>
<path d="M12.6665 4.66663H12.6732" stroke="white" stroke-opacity="0.25098" stroke-width="2.66667" stroke-linecap="square"/>
<path d="M12.6665 12.6666H12.6732" stroke="white" stroke-width="2.66667" stroke-linecap="square"/>
<path d="M15.3335 4.66663H15.3402" stroke="white" stroke-width="2.66667" stroke-linecap="square"/>
<path d="M15.3335 7.33337H15.3402" stroke="white" stroke-width="2.66667" stroke-linecap="square"/>
<path d="M15.3335 10H15.3402" stroke="white" stroke-width="2.66667" stroke-linecap="square"/>
<path d="M2 18H2.00667" stroke="white" stroke-width="2.66667" stroke-linecap="square"/>
<path d="M4.6665 18H4.67317" stroke="white" stroke-opacity="0.25098" stroke-width="2.66667" stroke-linecap="square"/>
<path d="M15.3335 18H15.3402" stroke="white" stroke-opacity="0.25098" stroke-width="2.66667" stroke-linecap="square"/>
<path d="M4.6665 15.3334H4.67317" stroke="white" stroke-width="2.66667" stroke-linecap="square"/>
<path d="M7.3335 15.3334H7.34016" stroke="white" stroke-width="2.66667" stroke-linecap="square"/>
<path d="M12.6665 15.3334H12.6732" stroke="white" stroke-width="2.66667" stroke-linecap="square"/>
<path d="M15.3335 15.3334H15.3402" stroke="white" stroke-width="2.66667" stroke-linecap="square"/>
<path d="M18 18H18.0067" stroke="white" stroke-width="2.66667" stroke-linecap="square"/>
</g>
<defs>
<clipPath id="clip0_99_969">
<rect width="20" height="20" fill="white"/>
</clipPath>
</defs>
</svg>
