<svg width="60" height="60" viewBox="0 0 60 60" fill="none" xmlns="http://www.w3.org/2000/svg">
<path d="M6 6H6.02" stroke="#11EEB4" stroke-width="8" stroke-linecap="square"/>
<path d="M14 6H14.02" stroke="#11EEB4" stroke-width="8" stroke-linecap="square"/>
<path d="M22 6H22.02" stroke="#11EEB4" stroke-width="8" stroke-linecap="square"/>
<path d="M30 6H30.02" stroke="#11EEB4" stroke-width="8" stroke-linecap="square"/>
<path d="M38 6H38.02" stroke="#11EEB4" stroke-width="8" stroke-linecap="square"/>
<path d="M54 6H54.02" stroke="#11EEB4" stroke-width="8" stroke-linecap="square"/>
<path d="M46 6H46.02" stroke="#11EEB4" stroke-width="8" stroke-linecap="square"/>
<path d="M6 22H6.02" stroke="#11EEB4" stroke-width="8" stroke-linecap="square"/>
<path d="M6 30H6.02" stroke="#11EEB4" stroke-width="8" stroke-linecap="square"/>
<path d="M6 38H6.02" stroke="#11EEB4" stroke-width="8" stroke-linecap="square"/>
<path d="M14 30H14.02" stroke="#11EEB4" stroke-opacity="0.29" stroke-width="8" stroke-linecap="square"/>
<path d="M14 38H14.02" stroke="#11EEB4" stroke-width="8" stroke-linecap="square"/>
<path d="M14 54H14.02" stroke="#11EEB4" stroke-width="8" stroke-linecap="square"/>
<path d="M22 22H22.02" stroke="#11EEB4" stroke-opacity="0.29" stroke-width="8" stroke-linecap="square"/>
<path d="M14 22H14.02" stroke="#11EEB4" stroke-opacity="0.29" stroke-width="8" stroke-linecap="square"/>
<path d="M22 30H22.02" stroke="#11EEB4" stroke-opacity="0.29" stroke-width="8" stroke-linecap="square"/>
<path d="M22 38H22.02" stroke="#11EEB4" stroke-width="8" stroke-linecap="square"/>
<path d="M22 54H22.02" stroke="#11EEB4" stroke-width="8" stroke-linecap="square"/>
<path d="M30 22H30.02" stroke="#11EEB4" stroke-opacity="0.29" stroke-width="8" stroke-linecap="square"/>
<path d="M30 30H30.02" stroke="#11EEB4" stroke-opacity="0.29" stroke-width="8" stroke-linecap="square"/>
<path d="M30 46H30.02" stroke="#11EEB4" stroke-width="8" stroke-linecap="square"/>
<path d="M30 38H30.02" stroke="#11EEB4" stroke-width="8" stroke-linecap="square"/>
<path d="M30 54H30.02" stroke="#11EEB4" stroke-width="8" stroke-linecap="square"/>
<path d="M38 30H38.02" stroke="#11EEB4" stroke-opacity="0.29" stroke-width="8" stroke-linecap="square"/>
<path d="M38 38H38.02" stroke="#11EEB4" stroke-width="8" stroke-linecap="square"/>
<path d="M38 54H38.02" stroke="#11EEB4" stroke-width="8" stroke-linecap="square"/>
<path d="M14 14H14.02" stroke="#11EEB4" stroke-opacity="0.29" stroke-width="8" stroke-linecap="square"/>
<path d="M6 14H6.02" stroke="#11EEB4" stroke-width="8" stroke-linecap="square"/>
<path d="M22 14H22.02" stroke="#11EEB4" stroke-opacity="0.29" stroke-width="8" stroke-linecap="square"/>
<path d="M54 14H54.02" stroke="#11EEB4" stroke-width="8" stroke-linecap="square"/>
<path d="M46 38H46.02" stroke="#11EEB4" stroke-width="8" stroke-linecap="square"/>
<path d="M46 54H46.02" stroke="#11EEB4" stroke-width="8" stroke-linecap="square"/>
<path d="M54 22H54.02" stroke="#11EEB4" stroke-width="8" stroke-linecap="square"/>
<path d="M54 30H54.02" stroke="#11EEB4" stroke-width="8" stroke-linecap="square"/>
<path d="M54 38H54.02" stroke="#11EEB4" stroke-width="8" stroke-linecap="square"/>
</svg>
