<svg width="60" height="60" viewBox="0 0 60 60" fill="none" xmlns="http://www.w3.org/2000/svg">
<path d="M6 14H6.02" stroke="#B411EE" stroke-width="8" stroke-linecap="square"/>
<path d="M6 22H6.02" stroke="#B411EE" stroke-width="8" stroke-linecap="square"/>
<path d="M6 30H6.02" stroke="#B411EE" stroke-width="8" stroke-linecap="square"/>
<path d="M14 14H14.02" stroke="#B411EE" stroke-opacity="0.31" stroke-width="8" stroke-linecap="square"/>
<path d="M14 22H14.02" stroke="#B411EE" stroke-opacity="0.31" stroke-width="8" stroke-linecap="square"/>
<path d="M14 30H14.02" stroke="#B411EE" stroke-opacity="0.31" stroke-width="8" stroke-linecap="square"/>
<path d="M14 38H14.02" stroke="#B411EE" stroke-width="8" stroke-linecap="square"/>
<path d="M22 22H22.02" stroke="#B411EE" stroke-opacity="0.31" stroke-width="8" stroke-linecap="square"/>
<path d="M22 30H22.02" stroke="#B411EE" stroke-opacity="0.31" stroke-width="8" stroke-linecap="square"/>
<path d="M22 38H22.02" stroke="#B411EE" stroke-width="8" stroke-linecap="square"/>
<path d="M30 38H30.02" stroke="#B411EE" stroke-width="8" stroke-linecap="square"/>
<path d="M30 30H30.02" stroke="#B411EE" stroke-opacity="0.31" stroke-width="8" stroke-linecap="square"/>
<path d="M38 14H38.02" stroke="#B411EE" stroke-width="8" stroke-linecap="square"/>
<path d="M38 22H38.02" stroke="#B411EE" stroke-width="8" stroke-linecap="square"/>
<path d="M38 30H38.02" stroke="#B411EE" stroke-width="8" stroke-linecap="square"/>
<path d="M14 6H14.02" stroke="#B411EE" stroke-width="8" stroke-linecap="square"/>
<path d="M22 6H22.02" stroke="#B411EE" stroke-width="8" stroke-linecap="square"/>
<path d="M30 6H30.02" stroke="#B411EE" stroke-width="8" stroke-linecap="square"/>
<path d="M46 46H46.02" stroke="#B411EE" stroke-width="8" stroke-linecap="square"/>
<path d="M54 54H54.02" stroke="#B411EE" stroke-width="8" stroke-linecap="square"/>
</svg>
