<svg width="30" height="30" viewBox="0 0 30 30" fill="none" xmlns="http://www.w3.org/2000/svg">
<path d="M3 11H3.01" stroke="#11EEB4" stroke-width="4" stroke-linecap="square"/>
<path d="M3 15H3.01" stroke="#11EEB4" stroke-width="4" stroke-linecap="square"/>
<path d="M3 19H3.01" stroke="#11EEB4" stroke-width="4" stroke-linecap="square"/>
<path d="M7 7H7.01" stroke="#11EEB4" stroke-width="4" stroke-linecap="square"/>
<path d="M7 15H7.01" stroke="#11EEB4" stroke-opacity="0.31" stroke-width="4" stroke-linecap="square"/>
<path d="M7 23H7.01" stroke="#11EEB4" stroke-width="4" stroke-linecap="square"/>
<path d="M11 11H11.01" stroke="#11EEB4" stroke-width="4" stroke-linecap="square"/>
<path d="M7 19H7.01" stroke="#11EEB4" stroke-opacity="0.31" stroke-width="4" stroke-linecap="square"/>
<path d="M11 19H11.01" stroke="#11EEB4" stroke-width="4" stroke-linecap="square"/>
<path d="M11 27H11.01" stroke="#11EEB4" stroke-width="4" stroke-linecap="square"/>
<path d="M11 23H11.01" stroke="#11EEB4" stroke-opacity="0.31" stroke-width="4" stroke-linecap="square"/>
<path d="M15 19H15.01" stroke="#11EEB4" stroke-width="4" stroke-linecap="square"/>
<path d="M15 27H15.01" stroke="#11EEB4" stroke-width="4" stroke-linecap="square"/>
<path d="M19 11H19.01" stroke="#11EEB4" stroke-width="4" stroke-linecap="square"/>
<path d="M19 19H19.01" stroke="#11EEB4" stroke-width="4" stroke-linecap="square"/>
<path d="M19 27H19.01" stroke="#11EEB4" stroke-width="4" stroke-linecap="square"/>
<path d="M23 7H23.01" stroke="#11EEB4" stroke-width="4" stroke-linecap="square"/>
<path d="M11 3H11.01" stroke="#11EEB4" stroke-width="4" stroke-linecap="square"/>
<path d="M15 3H15.01" stroke="#11EEB4" stroke-width="4" stroke-linecap="square"/>
<path d="M19 3H19.01" stroke="#11EEB4" stroke-width="4" stroke-linecap="square"/>
<path d="M23 23H23.01" stroke="#11EEB4" stroke-width="4" stroke-linecap="square"/>
<path d="M27 11H27.01" stroke="#11EEB4" stroke-width="4" stroke-linecap="square"/>
<path d="M27 15H27.01" stroke="#11EEB4" stroke-width="4" stroke-linecap="square"/>
<path d="M27 19H27.01" stroke="#11EEB4" stroke-width="4" stroke-linecap="square"/>
</svg>
