<svg width="60" height="60" viewBox="0 0 60 60" fill="none" xmlns="http://www.w3.org/2000/svg">
<path d="M6 54H6.02" stroke="#B411EE" stroke-width="8" stroke-linecap="square"/>
<path d="M14 14H14.02" stroke="#B411EE" stroke-width="8" stroke-linecap="square"/>
<path d="M14 22H14.02" stroke="#B411EE" stroke-width="8" stroke-linecap="square"/>
<path d="M22 22H22.02" stroke="#B411EE" stroke-width="8" stroke-linecap="square"/>
<path d="M30 22H30.02" stroke="#B411EE" stroke-width="8" stroke-linecap="square"/>
<path d="M38 22H38.02" stroke="#B411EE" stroke-width="8" stroke-linecap="square"/>
<path d="M46 22H46.02" stroke="#B411EE" stroke-width="8" stroke-linecap="square"/>
<path d="M54 22H54.02" stroke="#B411EE" stroke-width="8" stroke-linecap="square"/>
<path d="M6 22H6.02" stroke="#B411EE" stroke-width="8" stroke-linecap="square"/>
<path d="M14 38H14.02" stroke="#B411EE" stroke-width="8" stroke-linecap="square"/>
<path d="M14 46H14.02" stroke="#B411EE" stroke-width="8" stroke-linecap="square"/>
<path d="M14 54H14.02" stroke="#B411EE" stroke-width="8" stroke-linecap="square"/>
<path d="M22 14H22.02" stroke="#B411EE" stroke-opacity="0.37" stroke-width="8" stroke-linecap="square"/>
<path d="M22 54H22.02" stroke="#B411EE" stroke-width="8" stroke-linecap="square"/>
<path d="M30 46H30.02" stroke="#B411EE" stroke-width="8" stroke-linecap="square"/>
<path d="M30 38H30.02" stroke="#B411EE" stroke-width="8" stroke-linecap="square"/>
<path d="M30 54H30.02" stroke="#B411EE" stroke-width="8" stroke-linecap="square"/>
<path d="M38 54H38.02" stroke="#B411EE" stroke-width="8" stroke-linecap="square"/>
<path d="M46 14H46.02" stroke="#B411EE" stroke-width="8" stroke-linecap="square"/>
<path d="M22 6H22.02" stroke="#B411EE" stroke-width="8" stroke-linecap="square"/>
<path d="M30 6H30.02" stroke="#B411EE" stroke-width="8" stroke-linecap="square"/>
<path d="M38 6H38.02" stroke="#B411EE" stroke-width="8" stroke-linecap="square"/>
<path d="M46 38H46.02" stroke="#B411EE" stroke-width="8" stroke-linecap="square"/>
<path d="M46 46H46.02" stroke="#B411EE" stroke-width="8" stroke-linecap="square"/>
<path d="M46 54H46.02" stroke="#B411EE" stroke-width="8" stroke-linecap="square"/>
<path d="M54 54H54.02" stroke="#B411EE" stroke-width="8" stroke-linecap="square"/>
</svg>
