<svg width="20" height="20" viewBox="0 0 20 20" fill="none" xmlns="http://www.w3.org/2000/svg">
<g clip-path="url(#clip0_99_2706)">
<path d="M2 18H2.00792" stroke="#FCFCFD" stroke-width="2.66667" stroke-linecap="square"/>
<path d="M4.66699 7.33337H4.67366" stroke="#FCFCFD" stroke-width="2.66667" stroke-linecap="square"/>
<path d="M4.66699 10H4.67366" stroke="#FCFCFD" stroke-width="2.66667" stroke-linecap="square"/>
<path d="M4.66699 15.3334H4.67366" stroke="#FCFCFD" stroke-width="2.66667" stroke-linecap="square"/>
<path d="M4.66699 18H4.67366" stroke="white" stroke-opacity="0.25098" stroke-width="2.66667" stroke-linecap="square"/>
<path d="M7.3335 7.33337H7.34016" stroke="#FCFCFD" stroke-width="2.66667" stroke-linecap="square"/>
<path d="M7.3335 10H7.34016" stroke="#FCFCFD" stroke-width="2.66667" stroke-linecap="square"/>
<path d="M7.3335 15.3334H7.34016" stroke="#FCFCFD" stroke-width="2.66667" stroke-linecap="square"/>
<path d="M7.3335 18H7.34016" stroke="white" stroke-opacity="0.25098" stroke-width="2.66667" stroke-linecap="square"/>
<path d="M10 18H10.0067" stroke="#FCFCFD" stroke-width="2.66667" stroke-linecap="square"/>
<path d="M12.6665 4.66663H12.6732" stroke="#FCFCFD" stroke-width="2.66667" stroke-linecap="square"/>
<path d="M12.6665 10H12.6732" stroke="#FCFCFD" stroke-width="2.66667" stroke-linecap="square"/>
<path d="M12.6665 12.6666H12.6732" stroke="white" stroke-opacity="0.25098" stroke-width="2.66667" stroke-linecap="square"/>
<path d="M15.333 4.66663H15.3397" stroke="#FCFCFD" stroke-width="2.66667" stroke-linecap="square"/>
<path d="M12.6665 2H12.6732" stroke="#FCFCFD" stroke-width="2.66667" stroke-linecap="square"/>
<path d="M15.333 2H15.3397" stroke="#FCFCFD" stroke-width="2.66667" stroke-linecap="square"/>
<path d="M15.333 10H15.3397" stroke="#FCFCFD" stroke-width="2.66667" stroke-linecap="square"/>
<path d="M15.333 12.6666H15.3397" stroke="white" stroke-opacity="0.25098" stroke-width="2.66667" stroke-linecap="square"/>
<path d="M18 12.6666H18.0067" stroke="#FCFCFD" stroke-width="2.66667" stroke-linecap="square"/>
</g>
<defs>
<clipPath id="clip0_99_2706">
<rect width="20" height="20" fill="white"/>
</clipPath>
</defs>
</svg>
