<svg width="30" height="30" viewBox="0 0 30 30" fill="none" xmlns="http://www.w3.org/2000/svg">
<path d="M27.01 15H27" stroke="#EEB411" stroke-width="4" stroke-linecap="square"/>
<path d="M27.01 19H27" stroke="#EEB411" stroke-width="4" stroke-linecap="square"/>
<path d="M27.01 23H27" stroke="#EEB411" stroke-width="4" stroke-linecap="square"/>
<path d="M23.01 11H23" stroke="#EEB411" stroke-width="4" stroke-linecap="square"/>
<path d="M23.01 15H23" stroke="#EEB411" stroke-opacity="0.37" stroke-width="4" stroke-linecap="square"/>
<path d="M23.01 23H23" stroke="#EEB411" stroke-opacity="0.37" stroke-width="4" stroke-linecap="square"/>
<path d="M23.01 27H23" stroke="#EEB411" stroke-width="4" stroke-linecap="square"/>
<path d="M19.01 11H19" stroke="#EEB411" stroke-width="4" stroke-linecap="square"/>
<path d="M15.0198 11H15.0098" stroke="#EEB411" stroke-width="4" stroke-linecap="square"/>
<path d="M23.01 19H23" stroke="#EEB411" stroke-opacity="0.37" stroke-width="4" stroke-linecap="square"/>
<path d="M19.01 27H19" stroke="#EEB411" stroke-width="4" stroke-linecap="square"/>
<path d="M11.0198 7H11.0098" stroke="#EEB411" stroke-width="4" stroke-linecap="square"/>
<path d="M19.01 23H19" stroke="#EEB411" stroke-opacity="0.37" stroke-width="4" stroke-linecap="square"/>
<path d="M15.01 27H15" stroke="#EEB411" stroke-width="4" stroke-linecap="square"/>
<path d="M11.01 11H11" stroke="#EEB411" stroke-width="4" stroke-linecap="square"/>
<path d="M11.01 19H11" stroke="#EEB411" stroke-width="4" stroke-linecap="square"/>
<path d="M11.01 15H11" stroke="#EEB411" stroke-width="4" stroke-linecap="square"/>
<path d="M7.01 7H7" stroke="#EEB411" stroke-width="4" stroke-linecap="square"/>
<path d="M11.01 3H11" stroke="#EEB411" stroke-width="4" stroke-linecap="square"/>
<path d="M7.01 15H7" stroke="#EEB411" stroke-width="4" stroke-linecap="square"/>
<path d="M7.01 11H7" stroke="#EEB411" stroke-width="4" stroke-linecap="square"/>
<path d="M3.01 11H3" stroke="#EEB411" stroke-width="4" stroke-linecap="square"/>
</svg>
