<svg width="40" height="40" viewBox="0 0 40 40" fill="none" xmlns="http://www.w3.org/2000/svg">
<path d="M4 9.33325H4.01333" stroke="white" stroke-width="5.33333" stroke-linecap="square"/>
<path d="M4 14.6667H4.01333" stroke="white" stroke-width="5.33333" stroke-linecap="square"/>
<path d="M9.33301 9.33325H9.34634" stroke="white" stroke-width="5.33333" stroke-linecap="square"/>
<path d="M9.33301 14.6667H9.34634" stroke="white" stroke-width="5.33333" stroke-linecap="square"/>
<path d="M9.33301 20H9.34634" stroke="white" stroke-width="5.33333" stroke-linecap="square"/>
<path d="M9.33301 36H9.34634" stroke="white" stroke-width="5.33333" stroke-linecap="square"/>
<path d="M14.667 9.33325H14.6803" stroke="white" stroke-opacity="0.25098" stroke-width="5.33333" stroke-linecap="square"/>
<path d="M14.667 14.6667H14.6803" stroke="white" stroke-opacity="0.25098" stroke-width="5.33333" stroke-linecap="square"/>
<path d="M14.667 20H14.6803" stroke="white" stroke-opacity="0.25098" stroke-width="5.33333" stroke-linecap="square"/>
<path d="M14.667 25.3333H14.6803" stroke="white" stroke-width="5.33333" stroke-linecap="square"/>
<path d="M14.667 36H14.6803" stroke="white" stroke-width="5.33333" stroke-linecap="square"/>
<path d="M20 14.6667H20.0133" stroke="white" stroke-opacity="0.25098" stroke-width="5.33333" stroke-linecap="square"/>
<path d="M20 25.3333H20.0133" stroke="white" stroke-opacity="0.25098" stroke-width="5.33333" stroke-linecap="square"/>
<path d="M20 20H20.0133" stroke="white" stroke-opacity="0.25098" stroke-width="5.33333" stroke-linecap="square"/>
<path d="M20 30.6667H20.0133" stroke="white" stroke-width="5.33333" stroke-linecap="square"/>
<path d="M20 36H20.0133" stroke="white" stroke-width="5.33333" stroke-linecap="square"/>
<path d="M25.333 20H25.3463" stroke="white" stroke-opacity="0.25098" stroke-width="5.33333" stroke-linecap="square"/>
<path d="M25.333 25.3333H25.3463" stroke="white" stroke-width="5.33333" stroke-linecap="square"/>
<path d="M25.333 36H25.3463" stroke="white" stroke-width="5.33333" stroke-linecap="square"/>
<path d="M30.667 9.33325H30.6803" stroke="white" stroke-width="5.33333" stroke-linecap="square"/>
<path d="M30.667 14.6667H30.6803" stroke="white" stroke-width="5.33333" stroke-linecap="square"/>
<path d="M9.33301 4H9.34634" stroke="white" stroke-width="5.33333" stroke-linecap="square"/>
<path d="M14.667 4H14.6803" stroke="white" stroke-width="5.33333" stroke-linecap="square"/>
<path d="M20 4H20.0133" stroke="white" stroke-width="5.33333" stroke-linecap="square"/>
<path d="M25.333 4H25.3463" stroke="white" stroke-width="5.33333" stroke-linecap="square"/>
<path d="M30.667 4H30.6803" stroke="white" stroke-width="5.33333" stroke-linecap="square"/>
<path d="M30.667 20H30.6803" stroke="white" stroke-width="5.33333" stroke-linecap="square"/>
<path d="M30.667 36H30.6803" stroke="white" stroke-width="5.33333" stroke-linecap="square"/>
<path d="M36 9.33325H36.0133" stroke="white" stroke-width="5.33333" stroke-linecap="square"/>
<path d="M36 14.6667H36.0133" stroke="white" stroke-width="5.33333" stroke-linecap="square"/>
</svg>
