<svg width="76" height="45" viewBox="0 0 76 45" fill="none" xmlns="http://www.w3.org/2000/svg" shape-rendering="crispEdges">
<g clip-path="url(#clip0_14_11165)">
<path d="M25.3333 0H23.0303V2.25H25.3333V0Z" fill="white"/>
<path d="M27.6364 2.25H25.3333V4.5H27.6364V2.25Z" fill="white"/>
<path d="M62.1818 2.25H56.4242V3.375H62.1818V2.25Z" fill="white"/>
<path d="M67.9394 2.25H65.6364V3.375H67.9394V2.25Z" fill="white"/>
<path d="M56.4242 3.375H54.1212V4.5H56.4242V3.375Z" fill="white"/>
<path d="M65.6364 3.375H62.1818V4.5H65.6364V3.375Z" fill="white"/>
<path d="M69.0909 3.375H67.9394V4.5H69.0909V3.375Z" fill="white"/>
<path d="M25.3333 4.5H20.7273V6.75H25.3333V4.5Z" fill="white"/>
<path d="M54.1212 4.5H51.8182V5.625H54.1212V4.5Z" fill="white"/>
<path d="M62.1818 4.5H56.4242V15.75H62.1818V4.5Z" fill="white"/>
<path d="M67.9394 4.5H65.6364V5.625H67.9394V4.5Z" fill="white"/>
<path d="M70.2424 4.5H69.0909V5.625H70.2424V4.5Z" fill="white"/>
<path d="M51.8182 5.625H50.6667V6.75H51.8182V5.625Z" fill="white"/>
<path d="M56.4242 5.625H54.1212V23.625H56.4242V5.625Z" fill="white"/>
<path d="M65.6364 5.625H62.1818V9H65.6364V5.625Z" fill="white"/>
<path d="M69.0909 5.625H67.9394V6.75H69.0909V5.625Z" fill="white"/>
<path d="M71.3939 5.625H70.2424V7.875H71.3939V5.625Z" fill="white"/>
<path d="M23.0303 6.75H16.1212V9H23.0303V6.75Z" fill="white"/>
<path d="M29.9394 6.75H27.6364V9H29.9394V6.75Z" fill="white"/>
<path d="M50.6667 6.75H49.5152V9H50.6667V6.75Z" fill="white"/>
<path d="M54.1212 6.75H51.8182V21.375H54.1212V6.75Z" fill="white"/>
<path d="M67.9394 6.75H65.6364V7.875H67.9394V6.75Z" fill="white"/>
<path d="M66.7879 7.875H65.6364V9H66.7879V7.875Z" fill="white"/>
<path d="M70.2424 7.875H69.0909V9H70.2424V7.875Z" fill="white"/>
<path d="M16.1212 9H13.8182V11.25H16.1212V9Z" fill="white"/>
<path d="M23.0303 9H20.7273V24.75H23.0303V9Z" fill="white"/>
<path d="M27.6364 9H25.3333V27H27.6364V9Z" fill="white"/>
<path d="M49.5151 9H48.3636V11.25H49.5151V9Z" fill="white"/>
<path d="M51.8182 9H50.6667V14.625H51.8182V9Z" fill="white"/>
<path d="M63.3333 9H62.1818V24.75H63.3333V9Z" fill="white"/>
<path d="M69.0909 9H67.9394V15.75H69.0909V9Z" fill="white"/>
<path d="M71.3939 9H70.2424V12.375H71.3939V9Z" fill="white"/>
<path d="M48.3636 10.125H47.2121V11.25H48.3636V10.125Z" fill="white"/>
<path d="M67.9394 10.125H63.3333V15.75H67.9394V10.125Z" fill="white"/>
<path d="M18.4242 11.25H16.1212V13.5H18.4242V11.25Z" fill="white"/>
<path d="M41.4545 11.25H36.8485V13.5H41.4545V11.25Z" fill="white"/>
<path d="M47.2121 11.25H46.0606V12.375H47.2121V11.25Z" fill="white"/>
<path d="M50.6667 11.25H49.5152V13.5H50.6667V11.25Z" fill="white"/>
<path d="M46.0606 12.375H44.9091V13.5H46.0606V12.375Z" fill="white"/>
<path d="M49.5152 12.375H47.2121V13.5H49.5152V12.375Z" fill="white"/>
<path d="M70.2424 12.375H69.0909V16.875H70.2424V12.375Z" fill="white"/>
<path d="M72.5455 12.375H71.394V16.875H72.5455V12.375Z" fill="white"/>
<path d="M32.2424 13.5H27.6364V15.75H32.2424V13.5Z" fill="white"/>
<path d="M36.8485 13.5H34.5455V22.5H36.8485V13.5Z" fill="white"/>
<path d="M41.4546 13.5H39.1515V15.75H41.4546V13.5Z" fill="white"/>
<path d="M44.9091 13.5H43.7576V18H44.9091V13.5Z" fill="white"/>
<path d="M48.3636 13.5H46.0606V14.625H48.3636V13.5Z" fill="white"/>
<path d="M47.2121 14.625H46.0606V18H47.2121V14.625Z" fill="white"/>
<path d="M50.6667 14.625H49.5152V15.75H50.6667V14.625Z" fill="white"/>
<path d="M32.2424 15.75H29.9394V24.75H32.2424V15.75Z" fill="white"/>
<path d="M39.1515 15.75H36.8485V18H39.1515V15.75Z" fill="white"/>
<path d="M49.5151 15.75H48.3636V19.125H49.5151V15.75Z" fill="white"/>
<path d="M51.8182 15.75H50.6667V16.875H51.8182V15.75Z" fill="white"/>
<path d="M62.1818 15.75H58.7273V16.875H62.1818V15.75Z" fill="white"/>
<path d="M66.7879 15.75H63.3333V16.875H66.7879V15.75Z" fill="white"/>
<path d="M48.3636 16.875H47.2121V19.125H48.3636V16.875Z" fill="white"/>
<path d="M57.5758 16.875H56.4242V24.75H57.5758V16.875Z" fill="white"/>
<path d="M62.1818 16.875H61.0303V24.75H62.1818V16.875Z" fill="white"/>
<path d="M64.4849 16.875H63.3333V24.75H64.4849V16.875Z" fill="white"/>
<path d="M69.0909 16.875H67.9394V20.25H69.0909V16.875Z" fill="white"/>
<path d="M71.3939 16.875H70.2424V20.25H71.3939V16.875Z" fill="white"/>
<path d="M46.0606 18H44.9091V19.125H46.0606V18Z" fill="white"/>
<path d="M51.8182 18H49.5152V19.125H51.8182V18Z" fill="white"/>
<path d="M61.0303 18H59.8788V24.75H61.0303V18Z" fill="white"/>
<path d="M65.6364 18H64.4848V23.625H65.6364V18Z" fill="white"/>
<path d="M47.2121 19.125H46.0606V20.25H47.2121V19.125Z" fill="white"/>
<path d="M59.8788 19.125H57.5758V24.75H59.8788V19.125Z" fill="white"/>
<path d="M67.9394 19.125H65.6364V22.5H67.9394V19.125Z" fill="white"/>
<path d="M41.4546 20.25H39.1515V22.5H41.4546V20.25Z" fill="white"/>
<path d="M50.6667 20.25H47.2121V21.375H50.6667V20.25Z" fill="white"/>
<path d="M70.2424 20.25H69.0909V22.5H70.2424V20.25Z" fill="white"/>
<path d="M51.8182 21.375H50.6667V22.5H51.8182V21.375Z" fill="white"/>
<path d="M54.1212 21.375H52.9697V22.5H54.1212V21.375Z" fill="white"/>
<path d="M6.90909 22.5H2.30303V24.75H6.90909V22.5Z" fill="white"/>
<path d="M39.1515 22.5H36.8485V24.75H39.1515V22.5Z" fill="white"/>
<path d="M52.9697 22.5H51.8182V23.625H52.9697V22.5Z" fill="white"/>
<path d="M66.7879 22.5H65.6364V23.625H66.7879V22.5Z" fill="white"/>
<path d="M69.0909 22.5H67.9394V23.625H69.0909V22.5Z" fill="white"/>
<path d="M54.1212 23.625H52.9697V24.75H54.1212V23.625Z" fill="white"/>
<path d="M67.9394 23.625H66.7879V24.75H67.9394V23.625Z" fill="white"/>
<path d="M2.30303 24.75H0V40.5H2.30303V24.75Z" fill="white"/>
<path d="M9.21212 24.75H4.60606V29.25H9.21212V24.75Z" fill="white"/>
<path d="M16.1212 24.75H13.8182V27H16.1212V24.75Z" fill="white"/>
<path d="M46.0606 24.75H41.4545V27H46.0606V24.75Z" fill="white"/>
<path d="M50.6667 24.75H48.3636V27H50.6667V24.75Z" fill="white"/>
<path d="M56.4242 24.75H54.1212V25.875H56.4242V24.75Z" fill="white"/>
<path d="M66.7879 24.75H64.4848V25.875H66.7879V24.75Z" fill="white"/>
<path d="M64.4848 25.875H56.4242V27H64.4848V25.875Z" fill="white"/>
<path d="M13.8182 27H11.5152V42.75H13.8182V27Z" fill="white"/>
<path d="M23.0303 27H20.7273V29.25H23.0303V27Z" fill="white"/>
<path d="M36.8485 27H32.2424V29.25H36.8485V27Z" fill="white"/>
<path d="M41.4546 27H39.1515V42.75H41.4546V27Z" fill="white"/>
<path d="M46.0606 27H43.7576V33.75H46.0606V27Z" fill="white"/>
<path d="M32.2424 29.25H27.6364V31.5H32.2424V29.25Z" fill="white"/>
<path d="M36.8485 29.25H34.5455V40.5H36.8485V29.25Z" fill="white"/>
<path d="M50.6667 29.25H48.3636V40.5H50.6667V29.25Z" fill="white"/>
<path d="M59.8788 29.25H55.2727V31.5H59.8788V29.25Z" fill="white"/>
<path d="M69.0909 29.25H64.4848V31.5H69.0909V29.25Z" fill="white"/>
<path d="M76 29.25H73.697V31.5H76V29.25Z" fill="white"/>
<path d="M18.4242 31.5H13.8182V33.75H18.4242V31.5Z" fill="white"/>
<path d="M23.0303 31.5H20.7273V42.75H23.0303V31.5Z" fill="white"/>
<path d="M27.6364 31.5H25.3333V42.75H27.6364V31.5Z" fill="white"/>
<path d="M32.2424 31.5H29.9394V40.5H32.2424V31.5Z" fill="white"/>
<path d="M55.2727 31.5H52.9697V42.75H55.2727V31.5Z" fill="white"/>
<path d="M59.8788 31.5H57.5758V40.5H59.8788V31.5Z" fill="white"/>
<path d="M64.4849 31.5H62.1818V42.75H64.4849V31.5Z" fill="white"/>
<path d="M69.0909 31.5H66.7879V40.5H69.0909V31.5Z" fill="white"/>
<path d="M73.697 31.5H71.394V36H73.697V31.5Z" fill="white"/>
<path d="M9.21212 33.75H6.90909V40.5H9.21212V33.75Z" fill="white"/>
<path d="M18.4242 33.75H16.1212V40.5H18.4242V33.75Z" fill="white"/>
<path d="M43.7576 33.75H41.4545V36H43.7576V33.75Z" fill="white"/>
<path d="M76 33.75H73.697V40.5H76V33.75Z" fill="white"/>
<path d="M6.90909 40.5H2.30303V42.75H6.90909V40.5Z" fill="white"/>
<path d="M57.5758 40.5H55.2727V42.75H57.5758V40.5Z" fill="white"/>
<path d="M73.697 40.5H71.394V42.75H73.697V40.5Z" fill="white"/>
<path d="M39.1515 42.75H36.8485V45H39.1515V42.75Z" fill="white"/>
</g>
<defs>
<clipPath id="clip0_14_11165">
<rect width="76" height="45" fill="white"/>
</clipPath>
</defs>
</svg>
