<svg width="106" height="63" viewBox="0 0 106 63" fill="none" xmlns="http://www.w3.org/2000/svg">
<g clip-path="url(#clip0_14_12375)">
<path d="M35.3333 0H32.1212V3.15H35.3333V0Z" fill="white"/>
<path d="M38.5455 3.1499H35.3333V6.2999H38.5455V3.1499Z" fill="white"/>
<path d="M86.7273 3.1499H78.697V4.7249H86.7273V3.1499Z" fill="white"/>
<path d="M94.7576 3.1499H91.5455V4.7249H94.7576V3.1499Z" fill="white"/>
<path d="M78.697 4.7251H75.4848V6.3001H78.697V4.7251Z" fill="white"/>
<path d="M91.5454 4.7251H86.7273V6.3001H91.5454V4.7251Z" fill="white"/>
<path d="M96.3636 4.7251H94.7576V6.3001H96.3636V4.7251Z" fill="white"/>
<path d="M35.3333 6.30005H28.9091V9.45005H35.3333V6.30005Z" fill="white"/>
<path d="M75.4849 6.30005H72.2727V7.87505H75.4849V6.30005Z" fill="white"/>
<path d="M86.7273 6.30005H78.697V22.05H86.7273V6.30005Z" fill="white"/>
<path d="M94.7576 6.30005H91.5455V7.87505H94.7576V6.30005Z" fill="white"/>
<path d="M97.9697 6.30005H96.3636V7.87505H97.9697V6.30005Z" fill="white"/>
<path d="M72.2727 7.875H70.6667V9.45H72.2727V7.875Z" fill="white"/>
<path d="M78.697 7.875H75.4848V33.075H78.697V7.875Z" fill="white"/>
<path d="M91.5454 7.875H86.7273V12.6H91.5454V7.875Z" fill="white"/>
<path d="M96.3636 7.875H94.7576V9.45H96.3636V7.875Z" fill="white"/>
<path d="M99.5758 7.875H97.9697V11.025H99.5758V7.875Z" fill="white"/>
<path d="M32.1212 9.44995H22.4848V12.6H32.1212V9.44995Z" fill="white"/>
<path d="M41.7576 9.44995H38.5455V12.6H41.7576V9.44995Z" fill="white"/>
<path d="M70.6667 9.44995H69.0606V12.6H70.6667V9.44995Z" fill="white"/>
<path d="M75.4849 9.44995H72.2727V29.9249H75.4849V9.44995Z" fill="white"/>
<path d="M94.7576 9.44995H91.5455V11.025H94.7576V9.44995Z" fill="white"/>
<path d="M93.1515 11.0249H91.5455V12.5999H93.1515V11.0249Z" fill="white"/>
<path d="M97.9697 11.0249H96.3636V12.5999H97.9697V11.0249Z" fill="white"/>
<path d="M22.4848 12.6001H19.2727V15.7501H22.4848V12.6001Z" fill="white"/>
<path d="M32.1212 12.6001H28.9091V34.6501H32.1212V12.6001Z" fill="white"/>
<path d="M38.5455 12.6001H35.3333V37.8001H38.5455V12.6001Z" fill="white"/>
<path d="M69.0606 12.6001H67.4545V15.7501H69.0606V12.6001Z" fill="white"/>
<path d="M72.2727 12.6001H70.6667V20.4751H72.2727V12.6001Z" fill="white"/>
<path d="M88.3333 12.6001H86.7273V34.6501H88.3333V12.6001Z" fill="white"/>
<path d="M96.3636 12.6001H94.7576V22.0501H96.3636V12.6001Z" fill="white"/>
<path d="M99.5758 12.6001H97.9697V17.3251H99.5758V12.6001Z" fill="white"/>
<path d="M67.4545 14.175H65.8485V15.75H67.4545V14.175Z" fill="white"/>
<path d="M94.7576 14.175H88.3333V22.05H94.7576V14.175Z" fill="white"/>
<path d="M25.697 15.75H22.4848V18.9H25.697V15.75Z" fill="white"/>
<path d="M57.8182 15.75H51.394V18.9H57.8182V15.75Z" fill="white"/>
<path d="M65.8485 15.75H64.2424V17.325H65.8485V15.75Z" fill="white"/>
<path d="M70.6667 15.75H69.0606V18.9H70.6667V15.75Z" fill="white"/>
<path d="M64.2424 17.325H62.6364V18.9H64.2424V17.325Z" fill="white"/>
<path d="M69.0606 17.325H65.8485V18.9H69.0606V17.325Z" fill="white"/>
<path d="M97.9697 17.325H96.3636V23.625H97.9697V17.325Z" fill="white"/>
<path d="M101.182 17.325H99.5758V23.625H101.182V17.325Z" fill="white"/>
<path d="M44.9697 18.8999H38.5455V22.0499H44.9697V18.8999Z" fill="white"/>
<path d="M51.3939 18.8999H48.1818V31.4999H51.3939V18.8999Z" fill="white"/>
<path d="M57.8182 18.8999H54.606V22.0499H57.8182V18.8999Z" fill="white"/>
<path d="M62.6364 18.8999H61.0303V25.1999H62.6364V18.8999Z" fill="white"/>
<path d="M67.4546 18.8999H64.2424V20.4749H67.4546V18.8999Z" fill="white"/>
<path d="M65.8485 20.4751H64.2424V25.2001H65.8485V20.4751Z" fill="white"/>
<path d="M70.6667 20.4751H69.0606V22.0501H70.6667V20.4751Z" fill="white"/>
<path d="M44.9697 22.05H41.7576V34.65H44.9697V22.05Z" fill="white"/>
<path d="M54.6061 22.05H51.394V25.2H54.6061V22.05Z" fill="white"/>
<path d="M69.0606 22.05H67.4545V26.775H69.0606V22.05Z" fill="white"/>
<path d="M72.2727 22.05H70.6667V23.625H72.2727V22.05Z" fill="white"/>
<path d="M86.7273 22.05H81.9091V23.625H86.7273V22.05Z" fill="white"/>
<path d="M93.1515 22.05H88.3333V23.625H93.1515V22.05Z" fill="white"/>
<path d="M67.4545 23.625H65.8485V26.775H67.4545V23.625Z" fill="white"/>
<path d="M80.303 23.625H78.697V34.65H80.303V23.625Z" fill="white"/>
<path d="M86.7273 23.625H85.1212V34.65H86.7273V23.625Z" fill="white"/>
<path d="M89.9394 23.625H88.3333V34.65H89.9394V23.625Z" fill="white"/>
<path d="M96.3636 23.625H94.7576V28.35H96.3636V23.625Z" fill="white"/>
<path d="M99.5758 23.625H97.9697V28.35H99.5758V23.625Z" fill="white"/>
<path d="M64.2424 25.2H62.6364V26.775H64.2424V25.2Z" fill="white"/>
<path d="M72.2727 25.2H69.0606V26.775H72.2727V25.2Z" fill="white"/>
<path d="M85.1212 25.2H83.5152V34.65H85.1212V25.2Z" fill="white"/>
<path d="M91.5455 25.2H89.9394V33.075H91.5455V25.2Z" fill="white"/>
<path d="M65.8485 26.7749H64.2424V28.3499H65.8485V26.7749Z" fill="white"/>
<path d="M83.5152 26.7749H80.303V34.6499H83.5152V26.7749Z" fill="white"/>
<path d="M94.7576 26.7749H91.5455V31.4999H94.7576V26.7749Z" fill="white"/>
<path d="M57.8182 28.3501H54.606V31.5001H57.8182V28.3501Z" fill="white"/>
<path d="M70.6667 28.3501H65.8485V29.9251H70.6667V28.3501Z" fill="white"/>
<path d="M97.9697 28.3501H96.3636V31.5001H97.9697V28.3501Z" fill="white"/>
<path d="M72.2727 29.925H70.6667V31.5H72.2727V29.925Z" fill="white"/>
<path d="M75.4848 29.925H73.8788V31.5H75.4848V29.925Z" fill="white"/>
<path d="M9.63636 31.5H3.21212V34.65H9.63636V31.5Z" fill="white"/>
<path d="M54.6061 31.5H51.394V34.65H54.6061V31.5Z" fill="white"/>
<path d="M73.8788 31.5H72.2727V33.075H73.8788V31.5Z" fill="white"/>
<path d="M93.1515 31.5H91.5455V33.075H93.1515V31.5Z" fill="white"/>
<path d="M96.3636 31.5H94.7576V33.075H96.3636V31.5Z" fill="white"/>
<path d="M75.4848 33.075H73.8788V34.65H75.4848V33.075Z" fill="white"/>
<path d="M94.7576 33.075H93.1515V34.65H94.7576V33.075Z" fill="white"/>
<path d="M3.21212 34.6499H0V56.6999H3.21212V34.6499Z" fill="white"/>
<path d="M12.8485 34.6499H6.42424V40.9499H12.8485V34.6499Z" fill="white"/>
<path d="M22.4848 34.6499H19.2727V37.7999H22.4848V34.6499Z" fill="white"/>
<path d="M64.2424 34.6499H57.8182V37.7999H64.2424V34.6499Z" fill="white"/>
<path d="M70.6667 34.6499H67.4545V37.7999H70.6667V34.6499Z" fill="white"/>
<path d="M78.697 34.6499H75.4848V36.2249H78.697V34.6499Z" fill="white"/>
<path d="M93.1515 34.6499H89.9394V36.2249H93.1515V34.6499Z" fill="white"/>
<path d="M89.9394 36.2251H78.697V37.8001H89.9394V36.2251Z" fill="white"/>
<path d="M19.2727 37.8H16.0606V59.85H19.2727V37.8Z" fill="white"/>
<path d="M32.1212 37.8H28.9091V40.95H32.1212V37.8Z" fill="white"/>
<path d="M51.3939 37.8H44.9697V40.95H51.3939V37.8Z" fill="white"/>
<path d="M57.8182 37.8H54.606V59.85H57.8182V37.8Z" fill="white"/>
<path d="M64.2424 37.8H61.0303V47.25H64.2424V37.8Z" fill="white"/>
<path d="M44.9697 40.95H38.5455V44.1H44.9697V40.95Z" fill="white"/>
<path d="M51.3939 40.95H48.1818V56.7H51.3939V40.95Z" fill="white"/>
<path d="M70.6667 40.95H67.4545V56.7H70.6667V40.95Z" fill="white"/>
<path d="M83.5152 40.95H77.0909V44.1H83.5152V40.95Z" fill="white"/>
<path d="M96.3636 40.95H89.9394V44.1H96.3636V40.95Z" fill="white"/>
<path d="M106 40.95H102.788V44.1H106V40.95Z" fill="white"/>
<path d="M25.697 44.1001H19.2727V47.2501H25.697V44.1001Z" fill="white"/>
<path d="M32.1212 44.1001H28.9091V59.8501H32.1212V44.1001Z" fill="white"/>
<path d="M38.5455 44.1001H35.3333V59.8501H38.5455V44.1001Z" fill="white"/>
<path d="M44.9697 44.1001H41.7576V56.7001H44.9697V44.1001Z" fill="white"/>
<path d="M77.0909 44.1001H73.8788V59.8501H77.0909V44.1001Z" fill="white"/>
<path d="M83.5152 44.1001H80.303V56.7001H83.5152V44.1001Z" fill="white"/>
<path d="M89.9394 44.1001H86.7273V59.8501H89.9394V44.1001Z" fill="white"/>
<path d="M96.3636 44.1001H93.1515V56.7001H96.3636V44.1001Z" fill="white"/>
<path d="M102.788 44.1001H99.5758V50.4001H102.788V44.1001Z" fill="white"/>
<path d="M12.8485 47.25H9.63637V56.7H12.8485V47.25Z" fill="white"/>
<path d="M25.697 47.25H22.4848V56.7H25.697V47.25Z" fill="white"/>
<path d="M61.0303 47.25H57.8182V50.4H61.0303V47.25Z" fill="white"/>
<path d="M106 47.25H102.788V56.7H106V47.25Z" fill="white"/>
<path d="M9.63636 56.7H3.21212V59.85H9.63636V56.7Z" fill="white"/>
<path d="M80.303 56.7H77.0909V59.85H80.303V56.7Z" fill="white"/>
<path d="M102.788 56.7H99.5758V59.85H102.788V56.7Z" fill="white"/>
<path d="M54.6061 59.8501H51.394V63.0001H54.6061V59.8501Z" fill="white"/>
</g>
<defs>
<clipPath id="clip0_14_12375">
<rect width="106" height="63" fill="white"/>
</clipPath>
</defs>
</svg>
